<svg width="88" height="88" viewBox="0 0 88 88" fill="none" xmlns="http://www.w3.org/2000/svg">
<g id="Icon">
<circle id="Ellipse 15" cx="44" cy="44" r="44" fill="#93E1A4"/>
<g id="Group 4">
<path id="Vector" d="M38.625 38.625H49.625" stroke="#279B41" stroke-width="2" stroke-linecap="round" stroke-linejoin="round"/>
<path id="Vector_2" d="M38.625 44.125H49.625" stroke="#279B41" stroke-width="2" stroke-linecap="round" stroke-linejoin="round"/>
<path id="Vector_3" d="M38.625 49.625H44.125" stroke="#279B41" stroke-width="2" stroke-linecap="round" stroke-linejoin="round"/>
<path id="Vector_4" d="M49.0578 59.25H30.375C30.0103 59.25 29.6606 59.1051 29.4027 58.8473C29.1449 58.5894 29 58.2397 29 57.875V30.375C29 30.0103 29.1449 29.6606 29.4027 29.4027C29.6606 29.1449 30.0103 29 30.375 29H57.875C58.2397 29 58.5894 29.1449 58.8473 29.4027C59.1051 29.6606 59.25 30.0103 59.25 30.375V49.0578C59.2506 49.2364 59.216 49.4133 59.1482 49.5784C59.0804 49.7436 58.9806 49.8937 58.8547 50.0203L50.0203 58.8547C49.8937 58.9806 49.7436 59.0804 49.5784 59.1482C49.4133 59.216 49.2364 59.2506 49.0578 59.25V59.25Z" stroke="#279B41" stroke-width="2" stroke-linecap="round" stroke-linejoin="round"/>
<path id="Vector_5" d="M59.1297 49.625H49.625V59.1297" stroke="#279B41" stroke-width="2" stroke-linecap="round" stroke-linejoin="round"/>
</g>
</g>
</svg>
