<svg width="88" height="89" viewBox="0 0 88 89" fill="none" xmlns="http://www.w3.org/2000/svg">
<g id="Icon">
<circle id="Ellipse 15" cx="44" cy="44.9609" r="44" fill="#CA87FF"/>
<path id="Vector" d="M63.9069 49.1915L69.4948 46.4088C69.7107 46.3011 69.9029 46.1513 70.0601 45.9682C70.2173 45.7851 70.3363 45.5724 70.4101 45.3427C70.4838 45.1129 70.5109 44.8707 70.4897 44.6303C70.4685 44.3899 70.3995 44.1562 70.2866 43.9429L64.7213 33.2875C64.5041 32.8688 64.13 32.5529 63.6808 32.4088C63.2316 32.2647 62.7436 32.3041 62.3233 32.5183L56.6676 35.3462M63.9069 49.1915L56.6676 35.3462M63.9069 49.1915L60.2872 53.4446M56.6676 35.3462H47.46C47.225 35.3454 46.9922 35.3909 46.7748 35.4802C46.5574 35.5695 46.3597 35.7008 46.1931 35.8665L37.3249 44.7121C37.1439 44.898 37.0043 45.1202 36.9156 45.3641C36.8269 45.6079 36.7909 45.8679 36.8102 46.1267C36.8294 46.3855 36.9034 46.6372 37.0273 46.8652C37.1511 47.0933 37.322 47.2924 37.5285 47.4495L38.7502 48.377C40.0048 49.3134 41.5283 49.8193 43.0938 49.8193C44.6593 49.8193 46.1828 49.3134 47.4374 48.377L50.3331 46.2052L60.2872 53.4446M24.0905 48.9652L18.5026 46.16C18.2875 46.0545 18.0957 45.9069 17.9388 45.7259C17.7818 45.5448 17.6629 45.3341 17.589 45.1061C17.5151 44.8782 17.4879 44.6377 17.5088 44.399C17.5297 44.1604 17.5984 43.9283 17.7108 43.7167L23.2761 33.0613C23.4938 32.6428 23.8663 32.3259 24.3142 32.178C24.7621 32.0301 25.25 32.0629 25.6741 32.2695L31.3299 35.0974L24.0905 48.9652ZM24.0905 48.9652L36.4653 58.6252C36.6583 58.7822 36.8816 58.8978 37.1213 58.9646L50.2427 62.2449C50.5463 62.3105 50.8613 62.3015 51.1607 62.2188C51.4602 62.1361 51.7351 61.982 51.962 61.7698L60.2872 53.4446M31.4656 35.0974L43.0712 31.7039C43.4835 31.5857 43.9245 31.6177 44.3154 31.7944L52.143 35.3462" stroke="#722AAB" stroke-width="2.2" stroke-linecap="round" stroke-linejoin="round"/>
</g>
</svg>
