<svg width="88" height="88" viewBox="0 0 88 88" fill="none" xmlns="http://www.w3.org/2000/svg">
<g id="Icon">
<circle id="Ellipse 15" cx="44" cy="44" r="44" fill="#F96A4B"/>
<path id="Vector" d="M51.5976 39.8549L41.4617 49.5246L36.4024 44.6897M31.3085 56.6905C29.7199 55.1019 30.7732 51.7693 29.9617 49.8181C29.1501 47.8669 26.042 46.1574 26.042 43.999C26.042 41.8406 29.1156 40.2002 29.9617 38.1799C30.8078 36.1597 29.7199 32.8961 31.3085 31.3075C32.8971 29.719 36.2297 30.7723 38.1809 29.9607C40.1321 29.1491 41.8416 26.041 44 26.041C46.1584 26.041 47.7988 29.1146 49.8191 29.9607C51.8394 30.8068 55.1029 29.719 56.6915 31.3075C58.2801 32.8961 57.2268 36.2287 58.0383 38.1799C58.8499 40.1311 61.958 41.8406 61.958 43.999C61.958 46.1574 58.8844 47.7978 58.0383 49.8181C57.1922 51.8384 58.2801 55.1019 56.6915 56.6905C55.1029 58.2791 51.7703 57.2258 49.8191 58.0374C47.8679 58.8489 46.1584 61.957 44 61.957C41.8416 61.957 40.2012 58.8835 38.1809 58.0374C36.1606 57.1913 32.8971 58.2791 31.3085 56.6905Z" stroke="#A72D13" stroke-width="2.2" stroke-linecap="round" stroke-linejoin="round"/>
</g>
</svg>
