<svg width="88" height="88" viewBox="0 0 88 88" fill="none" xmlns="http://www.w3.org/2000/svg">
<g id="Icon">
<circle id="Ellipse 15" cx="44" cy="44" r="44" fill="#F5B7FF"/>
<path id="Vector" d="M44.0001 57.9999H28.4229C28.2354 58.0024 28.0493 57.9673 27.8755 57.8966C27.7018 57.826 27.5439 57.7213 27.4113 57.5887C27.2787 57.4561 27.174 57.2982 27.1034 57.1245C27.0327 56.9507 26.9976 56.7646 27.0001 56.5771V40.9999C27.0001 36.4913 28.7912 32.1673 31.9793 28.9792C35.1674 25.7911 39.4914 24 44.0001 24V24C46.2325 24 48.4431 24.4397 50.5057 25.294C52.5682 26.1484 54.4422 27.4006 56.0208 28.9792C57.5994 30.5578 58.8516 32.4318 59.706 34.4943C60.5603 36.5569 61 38.7675 61 40.9999V40.9999C61 43.2324 60.5603 45.443 59.706 47.5055C58.8516 49.5681 57.5994 51.4421 56.0208 53.0207C54.4422 54.5993 52.5682 55.8515 50.5057 56.7058C48.4431 57.5602 46.2325 57.9999 44.0001 57.9999V57.9999Z" stroke="#C556D7" stroke-width="2" stroke-linecap="round" stroke-linejoin="round"/>
<path id="Vector_2" d="M44 43C45.1046 43 46 42.1046 46 41C46 39.8954 45.1046 39 44 39C42.8954 39 42 39.8954 42 41C42 42.1046 42.8954 43 44 43Z" fill="#C556D7"/>
<path id="Vector_3" d="M36 43C37.1046 43 38 42.1046 38 41C38 39.8954 37.1046 39 36 39C34.8954 39 34 39.8954 34 41C34 42.1046 34.8954 43 36 43Z" fill="#C556D7"/>
<path id="Vector_4" d="M52 43C53.1046 43 54 42.1046 54 41C54 39.8954 53.1046 39 52 39C50.8954 39 50 39.8954 50 41C50 42.1046 50.8954 43 52 43Z" fill="#C556D7"/>
</g>
</svg>
