<svg width="86" height="86" viewBox="0 0 86 86" fill="none" xmlns="http://www.w3.org/2000/svg">
<g id="Icon">
<circle id="Ellipse 16" cx="43" cy="43.001" r="42.5" fill="white" stroke="#D5D5D5"/>
<path id="Vector" d="M56.8148 51.5662H55.6296V27.2184C55.6296 26.8955 55.5048 26.5858 55.2825 26.3575C55.0602 26.1292 54.7588 26.001 54.4444 26.001H46.1481C45.8338 26.001 45.5324 26.1292 45.3101 26.3575C45.0878 26.5858 44.963 26.8955 44.963 27.2184V33.3053H37.8519C37.5375 33.3053 37.2361 33.4336 37.0138 33.6619C36.7915 33.8902 36.6667 34.1998 36.6667 34.5227V40.6097H29.5556C29.2412 40.6097 28.9398 40.7379 28.7175 40.9662C28.4952 41.1945 28.3704 41.5042 28.3704 41.8271V51.5662H27.1852C26.8709 51.5662 26.5694 51.6945 26.3471 51.9228C26.1249 52.1511 26 52.4607 26 52.7836C26 53.1065 26.1249 53.4161 26.3471 53.6444C26.5694 53.8727 26.8709 54.001 27.1852 54.001H56.8148C57.1291 54.001 57.4306 53.8727 57.6529 53.6444C57.8751 53.4161 58 53.1065 58 52.7836C58 52.4607 57.8751 52.1511 57.6529 51.9228C57.4306 51.6945 57.1291 51.5662 56.8148 51.5662ZM39.037 35.7401H44.963V51.5662H39.037V35.7401ZM30.7407 43.0445H36.6667V51.5662H30.7407V43.0445Z" fill="#292930"/>
</g>
</svg>
