<svg width="88" height="88" viewBox="0 0 88 88" fill="none" xmlns="http://www.w3.org/2000/svg">
<g id="Icon">
<circle id="Ellipse 15" cx="44" cy="44.001" r="44" fill="#CA87FF"/>
<path id="Star 6" d="M42.0979 26.0902C42.6966 24.2475 45.3034 24.2476 45.9021 26.0902L48.4373 33.8926C48.9728 35.5407 50.5086 36.6565 52.2415 36.6565H60.4455C62.3829 36.6565 63.1885 39.1358 61.6211 40.2746L54.9839 45.0967C53.5819 46.1153 52.9953 47.9208 53.5308 49.5689L56.066 57.3713C56.6647 59.2139 54.5557 60.7462 52.9883 59.6074L46.3511 54.7852C44.9492 53.7666 43.0508 53.7666 41.6489 54.7852L35.0117 59.6074C33.4443 60.7462 31.3353 59.2139 31.934 57.3713L34.4692 49.5689C35.0047 47.9208 34.4181 46.1153 33.0161 45.0967L26.379 40.2746C24.8115 39.1358 25.6171 36.6565 27.5545 36.6565H35.7585C37.4914 36.6565 39.0272 35.5407 39.5627 33.8926L42.0979 26.0902Z" stroke="#722AAB" stroke-width="2"/>
</g>
</svg>
