<svg width="89" height="88" viewBox="0 0 89 88" fill="none" xmlns="http://www.w3.org/2000/svg">
<g id="Icon">
<circle id="Ellipse 15" cx="44.5" cy="44" r="44" fill="#292930"/>
<path id="Vector" d="M54.2778 29C53.9536 29 53.6427 29.1175 53.4135 29.3267C53.1843 29.5359 53.0556 29.8196 53.0556 30.1154V34.5769H35.9444V30.1154C35.9444 29.8196 35.8157 29.5359 35.5865 29.3267C35.3573 29.1175 35.0464 29 34.7222 29C34.3981 29 34.0872 29.1175 33.858 29.3267C33.6288 29.5359 33.5 29.8196 33.5 30.1154V56.8846C33.5 57.1804 33.6288 57.4641 33.858 57.6733C34.0872 57.8825 34.3981 58 34.7222 58C35.0464 58 35.3573 57.8825 35.5865 57.6733C35.8157 57.4641 35.9444 57.1804 35.9444 56.8846V52.4231H53.0556V56.8846C53.0556 57.1804 53.1843 57.4641 53.4135 57.6733C53.6427 57.8825 53.9536 58 54.2778 58C54.6019 58 54.9128 57.8825 55.142 57.6733C55.3712 57.4641 55.5 57.1804 55.5 56.8846V30.1154C55.5 29.8196 55.3712 29.5359 55.142 29.3267C54.9128 29.1175 54.6019 29 54.2778 29ZM53.0556 36.8077V42.3846H35.9444V36.8077H53.0556ZM35.9444 50.1923V44.6154H53.0556V50.1923H35.9444Z" fill="#8A8A8A"/>
</g>
</svg>
