<svg width="88" height="88" viewBox="0 0 88 88" fill="none" xmlns="http://www.w3.org/2000/svg">
<g id="Icon">
<circle id="Ellipse 15" cx="44" cy="44" r="44" fill="#5956E8"/>
<path id="Vector" d="M44 52C48.4183 52 52 48.4183 52 44C52 39.5817 48.4183 36 44 36C39.5817 36 36 39.5817 36 44C36 48.4183 39.5817 52 44 52Z" stroke="#C4C2FF" stroke-width="2" stroke-linecap="round" stroke-linejoin="round"/>
<path id="Vector_2" d="M53.4313 33.3496C53.8602 33.7447 54.2666 34.1511 54.6504 34.5687L59.2729 35.2291C60.0261 36.5371 60.6066 37.9372 61 39.3944L58.1892 43.1365C58.1892 43.1365 58.24 44.2879 58.1892 44.8635L61 48.6056C60.6084 50.0634 60.0278 51.4637 59.2729 52.7709L54.6504 53.4313C54.6504 53.4313 53.8546 54.261 53.4313 54.6504L52.7709 59.2729C51.4629 60.0261 50.0628 60.6066 48.6056 61L44.8635 58.1892C44.289 58.2401 43.711 58.2401 43.1365 58.1892L39.3944 61C37.9366 60.6084 36.5363 60.0278 35.2291 59.2729L34.5687 54.6504C34.1511 54.2553 33.7447 53.8489 33.3496 53.4313L28.7271 52.7709C27.9739 51.4629 27.3934 50.0628 27 48.6056L29.8108 44.8635C29.8108 44.8635 29.76 43.7122 29.8108 43.1365L27 39.3944C27.3916 37.9366 27.9722 36.5363 28.7271 35.2291L33.3496 34.5687C33.7447 34.1511 34.1511 33.7447 34.5687 33.3496L35.2291 28.7271C36.5371 27.9739 37.9372 27.3934 39.3944 27L43.1365 29.8108C43.711 29.7599 44.289 29.7599 44.8635 29.8108L48.6056 27C50.0634 27.3916 51.4637 27.9722 52.7709 28.7271L53.4313 33.3496Z" stroke="#C4C2FF" stroke-width="2" stroke-linecap="round" stroke-linejoin="round"/>
</g>
</svg>
