<svg width="89" height="88" viewBox="0 0 89 88" fill="none" xmlns="http://www.w3.org/2000/svg">
<g id="Icon">
<g id="Icon_2">
<circle id="Ellipse 15" cx="44.9111" cy="44" r="44" fill="#93E1A4"/>
<g id="Group 4">
<path id="Vector" d="M39.5361 38.625H50.5361" stroke="#279B41" stroke-width="2" stroke-linecap="round" stroke-linejoin="round"/>
<path id="Vector_2" d="M39.5361 44.125H50.5361" stroke="#279B41" stroke-width="2" stroke-linecap="round" stroke-linejoin="round"/>
<path id="Vector_3" d="M39.5361 49.625H45.0361" stroke="#279B41" stroke-width="2" stroke-linecap="round" stroke-linejoin="round"/>
<path id="Vector_4" d="M49.9689 59.25H31.2861C30.9215 59.25 30.5717 59.1051 30.3139 58.8473C30.056 58.5894 29.9111 58.2397 29.9111 57.875V30.375C29.9111 30.0103 30.056 29.6606 30.3139 29.4027C30.5717 29.1449 30.9215 29 31.2861 29H58.7861C59.1508 29 59.5005 29.1449 59.7584 29.4027C60.0163 29.6606 60.1611 30.0103 60.1611 30.375V49.0578C60.1618 49.2364 60.1272 49.4133 60.0593 49.5784C59.9915 49.7436 59.8918 49.8937 59.7658 50.0203L50.9314 58.8547C50.8049 58.9806 50.6547 59.0804 50.4896 59.1482C50.3244 59.216 50.1475 59.2506 49.9689 59.25V59.25Z" stroke="#279B41" stroke-width="2" stroke-linecap="round" stroke-linejoin="round"/>
<path id="Vector_5" d="M60.0408 49.625H50.5361V59.1297" stroke="#279B41" stroke-width="2" stroke-linecap="round" stroke-linejoin="round"/>
</g>
</g>
</g>
</svg>
