<svg width="89" height="88" viewBox="0 0 89 88" fill="none" xmlns="http://www.w3.org/2000/svg">
<g id="Icon">
<circle id="Ellipse 15" cx="44.5" cy="44" r="44" fill="#FFDC60"/>
<path id="Vector" d="M48.5 42.6429H45.8333V31.7857H47.1667C48.5798 31.7902 49.9338 32.3636 50.933 33.3806C51.9323 34.3977 52.4956 35.7759 52.5 37.2143C52.5 37.5742 52.6405 37.9194 52.8905 38.1739C53.1406 38.4284 53.4797 38.5714 53.8333 38.5714C54.187 38.5714 54.5261 38.4284 54.7761 38.1739C55.0262 37.9194 55.1667 37.5742 55.1667 37.2143C55.1667 35.0547 54.3238 32.9835 52.8235 31.4564C51.3232 29.9293 49.2884 29.0714 47.1667 29.0714H45.8333V26.3571C45.8333 25.9972 45.6929 25.652 45.4428 25.3975C45.1928 25.143 44.8536 25 44.5 25C44.1464 25 43.8072 25.143 43.5572 25.3975C43.3071 25.652 43.1667 25.9972 43.1667 26.3571V29.0714H41.1667C39.0449 29.0714 37.0101 29.9293 35.5098 31.4564C34.0095 32.9835 33.1667 35.0547 33.1667 37.2143C33.1667 39.3739 34.0095 41.4451 35.5098 42.9722C37.0101 44.4992 39.0449 45.3571 41.1667 45.3571H43.1667V56.2143H40.5C39.0869 56.2098 37.7329 55.6364 36.7336 54.6194C35.7344 53.6023 35.1711 52.2241 35.1667 50.7857C35.1667 50.4258 35.0262 50.0806 34.7761 49.8261C34.5261 49.5716 34.187 49.4286 33.8333 49.4286C33.4797 49.4286 33.1406 49.5716 32.8905 49.8261C32.6405 50.0806 32.5 50.4258 32.5 50.7857C32.5 52.9453 33.3429 55.0165 34.8431 56.5436C36.3434 58.0707 38.3783 58.9286 40.5 58.9286H43.1667V61.6429C43.1667 62.0028 43.3071 62.348 43.5572 62.6025C43.8072 62.857 44.1464 63 44.5 63C44.8536 63 45.1928 62.857 45.4428 62.6025C45.6929 62.348 45.8333 62.0028 45.8333 61.6429V58.9286H48.5C50.6217 58.9286 52.6566 58.0707 54.1569 56.5436C55.6571 55.0165 56.5 52.9453 56.5 50.7857C56.5 48.6261 55.6571 46.5549 54.1569 45.0278C52.6566 43.5008 50.6217 42.6429 48.5 42.6429ZM43.1667 42.6429H41.1667C39.7522 42.6429 38.3956 42.0709 37.3954 41.0529C36.3952 40.0348 35.8333 38.654 35.8333 37.2143C35.8333 35.7745 36.3952 34.3938 37.3954 33.3757C38.3956 32.3577 39.7522 31.7857 41.1667 31.7857H43.1667V42.6429ZM48.5 56.2143H45.8333V45.3571H48.5C49.9145 45.3571 51.271 45.9291 52.2712 46.9471C53.2714 47.9652 53.8333 49.346 53.8333 50.7857C53.8333 52.2255 53.2714 53.6062 52.2712 54.6243C51.271 55.6423 49.9145 56.2143 48.5 56.2143Z" fill="#B4962B"/>
</g>
</svg>
